<svg className='sitebar__icon'  width="56" height="56" viewBox="0 0 56 56" fill="none" xmlns="http://www.w3.org/2000/svg">
<rect width="56" height="56" rx="8" fill="#1F1D2B"/>
<path d="M29.9512 18.7164L30.1336 18.8865L30.8523 19.6052C31.0992 19.8509 31.423 20.0024 31.7675 20.0365L31.9162 20.0438H32.9442C34.548 20.0438 35.8595 21.2979 35.9511 22.8788L35.9562 23.0558V24.0828C35.9562 24.4326 36.0768 24.7689 36.2944 25.0362L36.3936 25.1465L37.1124 25.8653C38.2439 26.9917 38.2944 28.7929 37.2578 29.98L37.1226 30.1251L36.3942 30.8535C36.1492 31.099 35.9976 31.4231 35.9636 31.7672L35.9562 31.9158V32.9448C35.9562 34.5485 34.7021 35.8591 33.1212 35.9507L32.9442 35.9558H31.9162C31.5677 35.9558 31.231 36.0769 30.9634 36.2951L30.8532 36.3945L30.1354 37.1113C29.0102 38.2442 27.2076 38.2944 26.02 37.2574L25.8659 37.1131L25.1488 36.396C24.9004 36.1494 24.576 35.9973 24.2324 35.9631L24.0842 35.9558H23.0552C21.4521 35.9558 20.1409 34.7023 20.0493 33.1217L20.0442 32.9448V31.9158C20.0442 31.5678 19.9229 31.2308 19.7048 30.9637L19.6055 30.8537L18.8884 30.1356C17.7558 29.0094 17.7056 27.2068 18.7426 26.0204L18.8779 25.8755L19.604 25.1483C19.851 24.8996 20.0028 24.5758 20.0369 24.2315L20.0442 24.0828V23.0558L20.0493 22.8789C20.1376 21.3567 21.3567 20.1371 22.8784 20.0489L23.0552 20.0438H24.0842C24.4327 20.0438 24.7695 19.9229 25.0365 19.7057L25.1465 19.6068L25.8647 18.8877C26.9911 17.7562 28.7935 17.7064 29.9512 18.7164ZM27.0416 19.8426L26.9269 19.9467L26.2057 20.669C25.6884 21.1826 25.0043 21.4897 24.2821 21.5373L24.0842 21.5438H23.0552C22.2677 21.5438 21.6199 22.1479 21.5504 22.9182L21.5442 23.0558V24.0828C21.5442 24.8119 21.2796 25.5131 20.8023 26.0612L20.6669 26.2067L19.9398 26.9349C19.3879 27.4892 19.3558 28.3649 19.8435 28.9589L19.9479 29.0738L20.6672 29.7941C21.1816 30.3097 21.4899 30.995 21.5377 31.7178L21.5442 31.9158V32.9448C21.5442 33.7328 22.1479 34.3801 22.9177 34.4496L23.0552 34.4558H24.0842C24.812 34.4558 25.5138 34.7207 26.062 35.198L26.2076 35.3335L26.9309 36.0568C27.4891 36.6119 28.365 36.6442 28.9585 36.1565L29.0733 36.0521L29.7942 35.3322C30.3109 34.8179 30.9953 34.5101 31.7182 34.4623L31.9162 34.4558H32.9442C33.7329 34.4558 34.3805 33.8524 34.45 33.0823L34.4562 32.9448V31.9158C34.4562 31.1869 34.721 30.4839 35.1977 29.9383L35.3329 29.7935L36.0604 29.066C36.6122 28.511 36.6442 27.6358 36.1572 27.0419L36.0529 26.9271L35.331 26.2052C34.8171 25.6877 34.5103 25.0042 34.4627 24.2809L34.4562 24.0828V23.0558C34.4562 22.2674 33.8522 21.6195 33.0818 21.55L32.9442 21.5438H31.9162C31.1871 21.5438 30.485 21.2794 29.9381 20.8024L29.7929 20.6671L29.105 19.9773L29.0651 19.9403C28.5108 19.3885 27.635 19.3562 27.0416 19.8426ZM31.0966 30.0424C31.1666 30.1124 31.2266 30.1924 31.2666 30.2824C31.2966 30.3724 31.3166 30.4724 31.3166 30.5724C31.3166 30.6734 31.2966 30.7624 31.2666 30.8524C31.2266 30.9424 31.1666 31.0324 31.0966 31.1024C30.9566 31.2424 30.7666 31.3224 30.5666 31.3224C30.3666 31.3224 30.1766 31.2424 30.0366 31.1024C29.9666 31.0324 29.9166 30.9424 29.8766 30.8524C29.8366 30.7624 29.8166 30.6734 29.8166 30.5724C29.8166 30.4724 29.8366 30.3724 29.8766 30.2824C29.9166 30.1924 29.9666 30.1124 30.0366 30.0424C30.3166 29.7624 30.8166 29.7624 31.0966 30.0424ZM31.1003 24.8992C31.3665 25.1654 31.3907 25.5821 31.1729 25.8757L31.1003 25.9598L25.9603 31.0998C25.6674 31.3927 25.1925 31.3927 24.8996 31.0998C24.6333 30.8335 24.6091 30.4169 24.827 30.1233L24.8996 30.0392L30.0396 24.8992C30.3325 24.6063 30.8074 24.6063 31.1003 24.8992ZM25.9565 24.9028C26.0965 25.0418 26.1765 25.2328 26.1765 25.4328C26.1765 25.5328 26.1665 25.6218 26.1265 25.7128C26.0865 25.8028 26.0265 25.8828 25.9565 25.9628C25.8865 26.0328 25.8065 26.0818 25.7165 26.1218C25.6265 26.1618 25.5265 26.1828 25.4265 26.1828C25.3265 26.1828 25.2365 26.1618 25.1465 26.1218C25.0565 26.0818 24.9665 26.0328 24.8965 25.9628C24.8265 25.8828 24.7765 25.8028 24.7365 25.7128C24.6965 25.6218 24.6765 25.5328 24.6765 25.4328C24.6765 25.3318 24.6965 25.2328 24.7365 25.1428C24.7765 25.0528 24.8265 24.9628 24.8965 24.9028C25.1865 24.6218 25.6765 24.6218 25.9565 24.9028Z" fill="#EA7C69"/>
</svg>
