<svg width="222" height="300" viewBox="0 0 222 300" fill="none" xmlns="http://www.w3.org/2000/svg">
<rect width="221" height="299" rx="8" fill="#1F1D2B" stroke="#EA7C69" stroke-dasharray="5 5"/>
<path d="M111 127.5V135M111 142.5V135M111 135H118.5M111 135H103.5" stroke="#EA7C69" stroke-width="1.8" stroke-linecap="round" stroke-linejoin="round"/>
<path d="M72.5495 184C72.4428 184 72.3735 183.947 72.3415 183.84L71.8135 182.128C71.7922 182.085 71.7655 182.064 71.7335 182.064H67.5095C67.4775 182.064 67.4508 182.085 67.4295 182.128L66.9015 183.84C66.8695 183.947 66.8002 184 66.6935 184H65.0935C65.0295 184 64.9815 183.984 64.9495 183.952C64.9175 183.909 64.9122 183.851 64.9335 183.776L68.4055 172.96C68.4375 172.853 68.5068 172.8 68.6135 172.8H70.6135C70.7202 172.8 70.7895 172.853 70.8215 172.96L74.3095 183.776C74.3202 183.797 74.3255 183.824 74.3255 183.856C74.3255 183.952 74.2668 184 74.1495 184H72.5495ZM67.9255 180.512C67.9148 180.576 67.9362 180.608 67.9895 180.608H71.2375C71.3015 180.608 71.3228 180.576 71.3015 180.512L69.6535 175.152C69.6428 175.109 69.6268 175.088 69.6055 175.088C69.5842 175.088 69.5682 175.109 69.5575 175.152L67.9255 180.512ZM80.6265 172.992C80.6265 172.939 80.6425 172.896 80.6745 172.864C80.7172 172.821 80.7652 172.8 80.8185 172.8H82.2905C82.3438 172.8 82.3865 172.821 82.4185 172.864C82.4612 172.896 82.4825 172.939 82.4825 172.992V183.808C82.4825 183.861 82.4612 183.909 82.4185 183.952C82.3865 183.984 82.3438 184 82.2905 184H80.8185C80.7652 184 80.7172 183.984 80.6745 183.952C80.6425 183.909 80.6265 183.861 80.6265 183.808V183.328C80.6265 183.296 80.6158 183.275 80.5945 183.264C80.5732 183.253 80.5518 183.264 80.5305 183.296C80.0612 183.851 79.4478 184.128 78.6905 184.128C77.9332 184.128 77.2932 183.931 76.7705 183.536C76.2478 183.141 75.8692 182.592 75.6345 181.888C75.4425 181.291 75.3465 180.624 75.3465 179.888C75.3465 179.131 75.4372 178.48 75.6185 177.936C75.8532 177.232 76.2318 176.683 76.7545 176.288C77.2772 175.893 77.9332 175.696 78.7225 175.696C79.4585 175.696 80.0612 175.963 80.5305 176.496C80.5518 176.517 80.5732 176.528 80.5945 176.528C80.6158 176.517 80.6265 176.496 80.6265 176.464V172.992ZM80.2425 181.76C80.4878 181.323 80.6105 180.704 80.6105 179.904C80.6105 179.072 80.4772 178.437 80.2105 178C79.9225 177.531 79.5172 177.296 78.9945 177.296C78.4505 177.296 78.0238 177.52 77.7145 177.968C77.3945 178.437 77.2345 179.088 77.2345 179.92C77.2345 180.667 77.3625 181.28 77.6185 181.76C77.9172 182.272 78.3705 182.528 78.9785 182.528C79.5225 182.528 79.9438 182.272 80.2425 181.76ZM89.564 172.992C89.564 172.939 89.58 172.896 89.612 172.864C89.6547 172.821 89.7027 172.8 89.756 172.8H91.228C91.2813 172.8 91.324 172.821 91.356 172.864C91.3987 172.896 91.42 172.939 91.42 172.992V183.808C91.42 183.861 91.3987 183.909 91.356 183.952C91.324 183.984 91.2813 184 91.228 184H89.756C89.7027 184 89.6547 183.984 89.612 183.952C89.58 183.909 89.564 183.861 89.564 183.808V183.328C89.564 183.296 89.5533 183.275 89.532 183.264C89.5107 183.253 89.4893 183.264 89.468 183.296C88.9987 183.851 88.3853 184.128 87.628 184.128C86.8707 184.128 86.2307 183.931 85.708 183.536C85.1853 183.141 84.8067 182.592 84.572 181.888C84.38 181.291 84.284 180.624 84.284 179.888C84.284 179.131 84.3747 178.48 84.556 177.936C84.7907 177.232 85.1693 176.683 85.692 176.288C86.2147 175.893 86.8707 175.696 87.66 175.696C88.396 175.696 88.9987 175.963 89.468 176.496C89.4893 176.517 89.5107 176.528 89.532 176.528C89.5533 176.517 89.564 176.496 89.564 176.464V172.992ZM89.18 181.76C89.4253 181.323 89.548 180.704 89.548 179.904C89.548 179.072 89.4147 178.437 89.148 178C88.86 177.531 88.4547 177.296 87.932 177.296C87.388 177.296 86.9613 177.52 86.652 177.968C86.332 178.437 86.172 179.088 86.172 179.92C86.172 180.667 86.3 181.28 86.556 181.76C86.8547 182.272 87.308 182.528 87.916 182.528C88.46 182.528 88.8813 182.272 89.18 181.76ZM100.553 175.696C101.417 175.696 102.105 175.952 102.617 176.464C103.139 176.976 103.401 177.675 103.401 178.56V183.808C103.401 183.861 103.379 183.909 103.337 183.952C103.305 183.984 103.262 184 103.209 184H101.737C101.683 184 101.635 183.984 101.593 183.952C101.561 183.909 101.545 183.861 101.545 183.808V178.944C101.545 178.453 101.406 178.059 101.129 177.76C100.851 177.451 100.483 177.296 100.025 177.296C99.566 177.296 99.1926 177.445 98.9046 177.744C98.6273 178.043 98.4886 178.437 98.4886 178.928V183.808C98.4886 183.861 98.4673 183.909 98.4246 183.952C98.3926 183.984 98.35 184 98.2966 184H96.8246C96.7713 184 96.7233 183.984 96.6806 183.952C96.6486 183.909 96.6326 183.861 96.6326 183.808V176.016C96.6326 175.963 96.6486 175.92 96.6806 175.888C96.7233 175.845 96.7713 175.824 96.8246 175.824H98.2966C98.35 175.824 98.3926 175.845 98.4246 175.888C98.4673 175.92 98.4886 175.963 98.4886 176.016V176.528C98.4886 176.56 98.4993 176.581 98.5206 176.592C98.542 176.603 98.558 176.592 98.5686 176.56C99.006 175.984 99.6673 175.696 100.553 175.696ZM112.169 178.992C112.212 179.259 112.233 179.557 112.233 179.888L112.217 180.384C112.217 180.512 112.153 180.576 112.025 180.576H107.017C106.964 180.576 106.937 180.603 106.937 180.656C106.969 181.008 107.017 181.248 107.081 181.376C107.337 182.144 107.961 182.533 108.953 182.544C109.679 182.544 110.255 182.245 110.681 181.648C110.724 181.584 110.777 181.552 110.841 181.552C110.884 181.552 110.921 181.568 110.953 181.6L111.945 182.416C112.041 182.491 112.057 182.576 111.993 182.672C111.663 183.141 111.22 183.504 110.665 183.76C110.121 184.016 109.513 184.144 108.841 184.144C108.009 184.144 107.3 183.957 106.713 183.584C106.137 183.211 105.716 182.688 105.449 182.016C105.204 181.44 105.081 180.64 105.081 179.616C105.081 178.997 105.145 178.496 105.273 178.112C105.487 177.365 105.887 176.779 106.473 176.352C107.071 175.915 107.785 175.696 108.617 175.696C110.719 175.696 111.903 176.795 112.169 178.992ZM108.617 177.296C108.223 177.296 107.892 177.397 107.625 177.6C107.369 177.792 107.188 178.064 107.081 178.416C107.017 178.597 106.975 178.832 106.953 179.12C106.932 179.173 106.953 179.2 107.017 179.2H110.265C110.319 179.2 110.345 179.173 110.345 179.12C110.324 178.853 110.292 178.651 110.249 178.512C110.153 178.128 109.961 177.829 109.673 177.616C109.396 177.403 109.044 177.296 108.617 177.296ZM115.506 184C115.389 184 115.314 183.947 115.282 183.84L112.994 176.032L112.978 175.968C112.978 175.861 113.037 175.808 113.154 175.808H114.674C114.791 175.808 114.866 175.861 114.898 175.968L116.226 181.312C116.237 181.344 116.253 181.36 116.274 181.36C116.295 181.36 116.311 181.344 116.322 181.312L117.714 175.968C117.746 175.861 117.821 175.808 117.938 175.808H119.266C119.383 175.808 119.458 175.861 119.49 175.968L120.914 181.312C120.925 181.344 120.941 181.36 120.962 181.36C120.983 181.36 120.999 181.344 121.01 181.312L122.434 175.968C122.466 175.861 122.541 175.808 122.658 175.808L124.162 175.84C124.226 175.84 124.269 175.861 124.29 175.904C124.322 175.936 124.333 175.984 124.322 176.048L122.018 183.84C121.986 183.947 121.917 184 121.81 184H120.274C120.157 184 120.082 183.947 120.05 183.84L118.642 178.96C118.631 178.928 118.615 178.912 118.594 178.912C118.573 178.912 118.557 178.928 118.546 178.96L117.25 183.84C117.218 183.947 117.143 184 117.026 184H115.506ZM134.017 172.992C134.017 172.939 134.033 172.896 134.065 172.864C134.108 172.821 134.156 172.8 134.209 172.8H135.681C135.734 172.8 135.777 172.821 135.809 172.864C135.852 172.896 135.873 172.939 135.873 172.992V183.808C135.873 183.861 135.852 183.909 135.809 183.952C135.777 183.984 135.734 184 135.681 184H134.209C134.156 184 134.108 183.984 134.065 183.952C134.033 183.909 134.017 183.861 134.017 183.808V183.328C134.017 183.296 134.006 183.275 133.985 183.264C133.964 183.253 133.942 183.264 133.921 183.296C133.452 183.851 132.838 184.128 132.081 184.128C131.324 184.128 130.684 183.931 130.161 183.536C129.638 183.141 129.26 182.592 129.025 181.888C128.833 181.291 128.737 180.624 128.737 179.888C128.737 179.131 128.828 178.48 129.009 177.936C129.244 177.232 129.622 176.683 130.145 176.288C130.668 175.893 131.324 175.696 132.113 175.696C132.849 175.696 133.452 175.963 133.921 176.496C133.942 176.517 133.964 176.528 133.985 176.528C134.006 176.517 134.017 176.496 134.017 176.464V172.992ZM133.633 181.76C133.878 181.323 134.001 180.704 134.001 179.904C134.001 179.072 133.868 178.437 133.601 178C133.313 177.531 132.908 177.296 132.385 177.296C131.841 177.296 131.414 177.52 131.105 177.968C130.785 178.437 130.625 179.088 130.625 179.92C130.625 180.667 130.753 181.28 131.009 181.76C131.308 182.272 131.761 182.528 132.369 182.528C132.913 182.528 133.334 182.272 133.633 181.76ZM138.939 174.704C138.608 174.704 138.336 174.597 138.123 174.384C137.909 174.171 137.803 173.899 137.803 173.568C137.803 173.237 137.909 172.965 138.123 172.752C138.336 172.539 138.608 172.432 138.939 172.432C139.269 172.432 139.541 172.539 139.755 172.752C139.968 172.965 140.075 173.237 140.075 173.568C140.075 173.899 139.968 174.171 139.755 174.384C139.541 174.597 139.269 174.704 138.939 174.704ZM138.171 184C138.117 184 138.069 183.984 138.027 183.952C137.995 183.909 137.979 183.861 137.979 183.808V176C137.979 175.947 137.995 175.904 138.027 175.872C138.069 175.829 138.117 175.808 138.171 175.808H139.643C139.696 175.808 139.739 175.829 139.771 175.872C139.813 175.904 139.835 175.947 139.835 176V183.808C139.835 183.861 139.813 183.909 139.771 183.952C139.739 183.984 139.696 184 139.643 184H138.171ZM145.001 184.096C144.329 184.096 143.737 184 143.225 183.808C142.723 183.605 142.334 183.333 142.057 182.992C141.779 182.64 141.641 182.251 141.641 181.824V181.68C141.641 181.627 141.657 181.584 141.689 181.552C141.731 181.509 141.779 181.488 141.833 181.488H143.241C143.294 181.488 143.337 181.509 143.369 181.552C143.411 181.584 143.433 181.627 143.433 181.68V181.712C143.433 181.979 143.577 182.213 143.865 182.416C144.163 182.608 144.537 182.704 144.985 182.704C145.411 182.704 145.758 182.619 146.025 182.448C146.291 182.267 146.425 182.043 146.425 181.776C146.425 181.531 146.313 181.349 146.089 181.232C145.875 181.104 145.523 180.971 145.033 180.832L144.425 180.64C143.881 180.48 143.422 180.309 143.049 180.128C142.675 179.947 142.361 179.701 142.105 179.392C141.849 179.072 141.721 178.667 141.721 178.176C141.721 177.429 142.014 176.837 142.601 176.4C143.187 175.952 143.961 175.728 144.921 175.728C145.571 175.728 146.142 175.835 146.633 176.048C147.123 176.251 147.502 176.539 147.769 176.912C148.035 177.275 148.169 177.691 148.169 178.16C148.169 178.213 148.147 178.261 148.105 178.304C148.073 178.336 148.03 178.352 147.977 178.352H146.617C146.563 178.352 146.515 178.336 146.473 178.304C146.441 178.261 146.425 178.213 146.425 178.16C146.425 177.883 146.286 177.653 146.009 177.472C145.742 177.28 145.374 177.184 144.905 177.184C144.489 177.184 144.147 177.264 143.881 177.424C143.625 177.573 143.497 177.787 143.497 178.064C143.497 178.32 143.619 178.517 143.865 178.656C144.121 178.784 144.542 178.928 145.129 179.088L145.481 179.184C146.046 179.355 146.521 179.531 146.905 179.712C147.289 179.883 147.614 180.128 147.881 180.448C148.147 180.757 148.281 181.163 148.281 181.664C148.281 182.421 147.982 183.019 147.385 183.456C146.787 183.883 145.993 184.096 145.001 184.096ZM153.771 175.696C154.635 175.696 155.323 175.952 155.835 176.464C156.358 176.976 156.619 177.675 156.619 178.56V183.808C156.619 183.861 156.598 183.909 156.555 183.952C156.523 183.984 156.481 184 156.427 184H154.955C154.902 184 154.854 183.984 154.811 183.952C154.779 183.909 154.763 183.861 154.763 183.808V178.944C154.763 178.453 154.625 178.059 154.347 177.76C154.07 177.451 153.702 177.296 153.243 177.296C152.785 177.296 152.411 177.445 152.123 177.744C151.846 178.043 151.707 178.437 151.707 178.928V183.808C151.707 183.861 151.686 183.909 151.643 183.952C151.611 183.984 151.569 184 151.515 184H150.043C149.99 184 149.942 183.984 149.899 183.952C149.867 183.909 149.851 183.861 149.851 183.808V172.992C149.851 172.939 149.867 172.896 149.899 172.864C149.942 172.821 149.99 172.8 150.043 172.8H151.515C151.569 172.8 151.611 172.821 151.643 172.864C151.686 172.896 151.707 172.939 151.707 172.992V176.528C151.707 176.56 151.718 176.581 151.739 176.592C151.761 176.603 151.777 176.592 151.787 176.56C152.225 175.984 152.886 175.696 153.771 175.696Z" fill="#EA7C69"/>
</svg>
